<svg xmlns="http://www.w3.org/2000/svg" viewBox="0 0 1400 420">
  <defs>
    <linearGradient id="bg" x1="0" y1="0" x2="1" y2="1">
      <stop offset="0%" stop-color="#1e3c72"/>
      <stop offset="100%" stop-color="#2a5298"/>
    </linearGradient>
  </defs>
  <rect width="1400" height="420" fill="url(#bg)"/>
  <g opacity="0.1" fill="#fff">
    <circle cx="1200" cy="100" r="80"/>
    <circle cx="1300" cy="320" r="50"/>
    <circle cx="100" cy="380" r="60"/>
  </g>
  <!-- Laptop illustration right -->
  <g transform="translate(880,90)">
    <rect x="0" y="0" width="440" height="260" rx="16" fill="#111" stroke="#fff" stroke-width="3"/>
    <rect x="16" y="16" width="408" height="228" rx="8" fill="#0b0b12"/>
    <rect x="40" y="40" width="360" height="6" fill="#1e3c72"/>
    <rect x="40" y="60" width="280" height="6" fill="#666"/>
    <rect x="40" y="80" width="320" height="6" fill="#444"/>
    <rect x="40" y="110" width="160" height="110" fill="#1e3c72" opacity="0.3"/>
    <rect x="210" y="110" width="190" height="50" fill="#333"/>
    <rect x="210" y="170" width="190" height="50" fill="#222"/>
  </g>
  <polygon points="860,350 1360,350 1390,380 840,380" fill="#0a0a0a"/>
  <!-- Text left -->
  <text x="80" y="170" font-family="Segoe UI, Arial" font-weight="900" font-size="68" fill="#fff">LAPTOP SHOP</text>
  <text x="80" y="230" font-family="Segoe UI, Arial" font-size="28" fill="#ecf0f1" opacity="0.92">Công nghệ đỉnh cao • Giá tốt mỗi ngày</text>
  <g transform="translate(80,270)">
    <rect width="200" height="58" rx="29" fill="#fff"/>
    <text x="100" y="38" text-anchor="middle" font-family="Segoe UI, Arial" font-weight="700" font-size="20" fill="#2a5298">MUA NGAY</text>
  </g>
</svg>